<svg xmlns="http://www.w3.org/2000/svg" xmlns:xlink="http://www.w3.org/1999/xlink" preserveAspectRatio="xMidYMid" width="71" height="20" viewBox="0 0 71 20">
  <defs>
    <style>
      .cls-1 {
        fill: #ededed;
        fill-rule: evenodd;
      }
    </style>
  </defs>
  <path d="M68.798,13.078 L69.000,13.084 L69.000,13.756 L68.786,13.750 C67.125,13.709 66.133,12.845 66.133,11.438 L66.133,5.974 L64.477,5.974 L64.477,5.301 L66.133,5.301 L66.133,1.837 L66.831,1.837 L66.831,5.301 L68.900,5.301 L68.900,5.974 L66.831,5.974 L66.831,11.438 C66.831,12.747 67.900,13.052 68.798,13.078 ZM62.115,4.118 L62.115,5.252 L64.201,5.252 L64.201,5.925 L62.115,5.925 L62.115,13.718 L61.433,13.718 L61.433,5.925 L59.778,5.925 L59.778,5.252 L61.433,5.252 L61.433,4.134 C61.433,2.716 62.425,1.846 64.087,1.805 L64.301,1.799 L64.301,2.471 L64.098,2.477 C63.193,2.502 62.115,2.808 62.115,4.118 ZM55.967,13.800 L55.910,13.800 C54.383,13.780 52.740,13.063 52.740,11.535 L52.740,7.484 C52.740,5.928 54.410,5.219 55.962,5.219 C57.514,5.219 59.184,5.928 59.184,7.484 L59.184,11.535 C59.184,13.091 57.517,13.800 55.967,13.800 ZM58.503,11.535 L58.503,7.484 C58.503,6.391 57.189,5.894 55.969,5.894 C54.703,5.894 53.421,6.440 53.421,7.484 L53.421,11.535 C53.421,12.644 54.742,13.150 55.969,13.150 C55.969,13.150 55.969,13.150 55.969,13.150 C56.641,13.150 57.290,12.995 57.748,12.725 C58.092,12.522 58.503,12.150 58.503,11.535 ZM48.426,9.160 C48.520,9.170 48.612,9.180 48.701,9.191 C49.535,9.298 50.572,9.431 51.215,9.993 C51.507,10.240 51.898,10.670 51.898,11.519 C51.898,12.536 51.185,13.317 49.941,13.661 C49.578,13.765 49.145,13.820 48.691,13.820 C48.220,13.820 47.762,13.761 47.330,13.645 C46.473,13.434 45.800,12.979 45.387,12.331 L45.275,12.155 L45.838,11.813 L45.950,11.975 C46.288,12.467 46.797,12.798 47.505,12.987 C48.269,13.172 49.185,13.183 49.761,13.021 C50.199,12.895 51.217,12.495 51.200,11.506 C51.200,10.289 50.073,10.046 48.713,9.873 L48.431,9.837 C47.097,9.670 45.438,9.463 45.438,7.533 C45.438,6.503 46.144,5.705 47.375,5.342 C48.188,5.103 49.115,5.103 49.928,5.342 C50.608,5.531 51.129,5.846 51.473,6.278 L51.614,6.456 L51.031,6.825 L50.914,6.679 C50.592,6.278 50.101,6.079 49.746,5.982 C49.082,5.789 48.284,5.791 47.572,5.982 C47.033,6.142 46.119,6.560 46.119,7.549 C46.119,8.082 46.311,8.481 46.690,8.735 C47.148,9.018 47.827,9.093 48.426,9.160 ZM43.501,7.549 C43.501,6.402 42.244,5.879 41.076,5.879 C39.908,5.879 38.651,6.402 38.651,7.549 L38.651,13.718 L37.970,13.718 L37.970,7.549 C37.970,6.406 36.732,5.886 35.582,5.886 C34.397,5.886 33.171,6.427 33.120,7.461 L33.120,13.718 L32.439,13.718 L32.439,7.626 C32.445,7.521 32.479,7.047 32.585,6.822 L32.735,6.509 C33.235,5.711 34.323,5.215 35.574,5.215 C36.784,5.215 37.810,5.680 38.312,6.427 C38.824,5.679 39.867,5.213 41.096,5.213 C42.582,5.213 44.182,5.944 44.182,7.549 L44.182,13.718 L43.501,13.718 L43.501,7.549 ZM27.961,17.313 C27.023,17.313 25.791,17.031 25.149,16.239 L24.988,16.040 L25.591,15.743 L25.697,15.857 C26.172,16.365 26.998,16.656 27.961,16.656 C28.334,16.656 28.710,16.608 29.049,16.516 C29.473,16.399 30.467,16.017 30.485,15.012 L30.485,12.996 C29.848,13.595 28.920,13.758 28.358,13.799 C28.241,13.808 28.120,13.812 27.996,13.812 C27.207,13.812 26.429,13.638 25.863,13.333 C25.117,12.932 24.723,12.316 24.723,11.552 L24.723,5.301 L25.405,5.301 L25.405,11.552 C25.405,13.093 27.735,13.138 28.001,13.138 C28.108,13.138 28.212,13.134 28.311,13.128 C28.531,13.110 30.485,12.912 30.485,11.552 L30.485,5.301 L31.183,5.301 L31.183,14.999 C31.183,16.017 30.451,16.824 29.225,17.158 C28.813,17.260 28.378,17.313 27.961,17.313 ZM20.309,9.160 C20.403,9.170 20.495,9.180 20.584,9.191 C21.419,9.298 22.456,9.431 23.098,9.993 C23.563,10.386 23.781,10.872 23.781,11.519 C23.781,12.536 23.068,13.317 21.824,13.661 C21.466,13.764 21.022,13.820 20.574,13.820 C20.102,13.820 19.644,13.761 19.213,13.645 C18.356,13.434 17.683,12.979 17.270,12.331 L17.158,12.155 L17.722,11.813 L17.834,11.976 C18.171,12.467 18.679,12.798 19.388,12.987 C20.152,13.172 21.068,13.183 21.644,13.021 C22.082,12.895 23.101,12.495 23.083,11.506 C23.083,10.289 21.957,10.046 20.596,9.873 L20.314,9.837 C18.980,9.670 17.321,9.463 17.321,7.533 C17.321,6.503 18.027,5.705 19.258,5.342 C20.072,5.103 20.998,5.103 21.811,5.342 C22.491,5.531 23.012,5.846 23.356,6.278 L23.497,6.456 L22.914,6.825 L22.797,6.679 C22.475,6.278 21.984,6.079 21.629,5.982 C20.965,5.789 20.167,5.791 19.455,5.982 C18.916,6.142 18.003,6.560 18.003,7.549 C18.003,8.082 18.195,8.481 18.573,8.735 C19.031,9.018 19.710,9.093 20.309,9.160 ZM7.339,9.122 C7.789,9.122 8.208,8.990 8.555,8.763 C8.844,8.551 9.379,8.247 10.122,8.247 C11.563,8.247 12.731,9.398 12.731,10.817 C12.731,12.236 11.563,13.387 10.122,13.387 C9.496,13.387 9.337,13.185 8.746,13.185 C7.933,13.185 7.225,13.620 6.852,14.264 C6.849,14.272 6.711,14.545 6.381,14.545 C6.088,14.545 5.849,14.310 5.849,14.020 C5.849,13.808 5.977,13.626 6.160,13.543 C6.175,13.537 6.214,13.522 6.219,13.520 C7.012,13.203 7.571,12.436 7.571,11.540 C7.571,10.375 6.609,9.403 5.407,9.403 C4.928,9.403 4.487,9.557 4.129,9.816 L4.129,9.815 C3.701,10.119 3.176,10.298 2.609,10.298 C1.168,10.298 0.000,9.145 0.000,7.724 C0.000,6.302 1.168,5.150 2.609,5.150 C3.296,5.150 3.474,5.404 4.151,5.404 C5.349,5.404 6.320,4.460 6.320,3.297 C6.320,3.095 6.261,2.807 6.261,2.575 C6.261,1.154 7.429,0.001 8.870,0.001 C10.311,0.001 11.479,1.154 11.479,2.575 C11.479,3.997 10.311,5.150 8.870,5.150 C8.179,5.150 7.970,4.903 7.339,4.903 C6.137,4.903 5.162,5.847 5.162,7.013 C5.162,8.213 6.177,9.122 7.339,9.122 ZM3.548,13.850 C4.989,13.850 6.157,15.003 6.157,16.424 C6.157,17.846 4.989,18.999 3.548,18.999 C2.107,18.999 0.939,17.846 0.939,16.424 C0.939,15.003 2.107,13.850 3.548,13.850 Z" class="cls-1"/>
</svg>
