<?xml version="1.0" encoding="utf-8"?>
<!-- Generator: Adobe Illustrator 19.1.0, SVG Export Plug-In . SVG Version: 6.00 Build 0)  -->
<!DOCTYPE svg PUBLIC "-//W3C//DTD SVG 1.1//EN" "http://www.w3.org/Graphics/SVG/1.1/DTD/svg11.dtd">
<svg version="1.1" xmlns="http://www.w3.org/2000/svg" xmlns:xlink="http://www.w3.org/1999/xlink" x="0px" y="0px"
	 viewBox="0 0 16 16" enable-background="new 0 0 16 16" xml:space="preserve">
<g id="Layer_1">
	<polygon fill-rule="evenodd" clip-rule="evenodd" fill="#CFEDDF" points="-432.5,-81.2 -368.1,-81.2 -368.1,-86 -410.7,-175.5 
		-432.5,-157.9 -432.5,-81.2 	"/>
	<polygon fill-rule="evenodd" clip-rule="evenodd" fill="#C0E3D3" points="-481.2,-81.2 -450.9,-81.2 -450.9,-296.5 -496.9,-296.5 
		-496.9,-196.6 -481.2,-183.9 -481.2,-81.2 	"/>
	<polygon fill-rule="evenodd" clip-rule="evenodd" fill="#C0E3D3" points="-575.8,-81.2 -545.5,-81.2 -545.5,-183.9 -529.9,-196.6 
		-529.9,-334.7 -575.8,-334.7 -575.8,-81.2 	"/>
	<path fill-rule="evenodd" clip-rule="evenodd" fill="#CFEDDF" d="M-575.8-81.2h-7.3v-129.2h-25.7V-271l33,69.3V-81.2L-575.8-81.2z
		 M-636.5-296.5v-32.7l15.6,32.7H-636.5L-636.5-296.5z"/>
	<polygon fill-rule="evenodd" clip-rule="evenodd" fill="#CFEDDF" points="-654.7,-81.2 -715.4,-81.2 -715.4,-292.6 -654.7,-165.1 
		-654.7,-81.2 	"/>
	<polygon fill-rule="evenodd" clip-rule="evenodd" fill="#CFEDDF" points="-529.9,-196.6 -529.9,-296.5 -524.5,-296.5 
		-496.9,-238.5 -496.9,-196.6 -513.4,-210 -529.9,-196.6 	"/>
	<polygon fill-rule="evenodd" clip-rule="evenodd" fill="#E5F7EF" points="-654.7,-165.1 -715.4,-292.6 -715.4,-296.5 
		-654.7,-296.5 -654.7,-165.1 	"/>
	<polygon fill-rule="evenodd" clip-rule="evenodd" fill="#E5F7EF" points="-575.8,-201.8 -608.8,-271 -608.8,-296.5 -620.9,-296.5 
		-636.5,-329.3 -636.5,-334.7 -575.8,-334.7 -575.8,-201.8 	"/>
	<polygon fill-rule="evenodd" clip-rule="evenodd" fill="#E5F7EF" points="-524.5,-296.5 -496.9,-296.5 -496.9,-238.5 
		-524.5,-296.5 	"/>
	<polygon fill-rule="evenodd" clip-rule="evenodd" fill="#C0E3D3" points="-775.7,-81.2 -730.5,-81.2 -730.5,-112.6 -789.6,-236.8 
		-796.7,-236.8 -796.7,-183.9 -775.7,-183.9 -775.7,-81.2 	"/>
	<polygon fill-rule="evenodd" clip-rule="evenodd" fill="#C0E3D3" points="-654.7,-81.2 -647.4,-81.2 -647.4,-149.8 -647.4,-149.8 
		-647.4,-210.4 -608.8,-210.4 -608.8,-296.5 -654.7,-296.5 -654.7,-81.2 	"/>
	<path fill-rule="evenodd" clip-rule="evenodd" fill="#AED3C2" d="M-628.1-210.4v-19h-7.3v19H-628.1L-628.1-210.4z M-628.1-233.9
		v-44.4h-7.3v44.4H-628.1L-628.1-233.9z"/>
	<polygon fill-rule="evenodd" clip-rule="evenodd" fill="#A1C8B6" points="-477.6,-81.2 -470.2,-81.2 -470.2,-250.8 -477.6,-247.4 
		-477.6,-81.2 	"/>
	<polygon fill-rule="evenodd" clip-rule="evenodd" fill="#A1C8B6" points="-556.5,-81.2 -549.2,-81.2 -549.2,-214.2 -556.5,-210.7 
		-556.5,-81.2 	"/>
	<path fill-rule="evenodd" clip-rule="evenodd" fill="#AED3C2" d="M-549.2-214.2v-53.4h-7.3v56.8L-549.2-214.2L-549.2-214.2z
		 M-549.2-272.1V-292h-7.3v19.9H-549.2L-549.2-272.1z M-549.2-296.5v-19.9h-7.3v19.9H-549.2L-549.2-296.5z"/>
	<polygon fill-rule="evenodd" clip-rule="evenodd" fill="#AED3C2" points="-470.2,-250.8 -470.2,-278.3 -477.6,-278.3 
		-477.6,-247.4 -470.2,-250.8 	"/>
	<polygon fill-rule="evenodd" clip-rule="evenodd" fill="#CFEDDF" points="-842,-81.2 -775.7,-81.2 -775.7,-183.9 -842,-183.9 
		-842,-81.2 	"/>
	<polygon fill-rule="evenodd" clip-rule="evenodd" fill="#E5F7EF" points="-614.8,-81.2 -583.1,-81.2 -583.1,-210.4 -647.4,-210.4 
		-647.4,-149.8 -614.8,-81.2 	"/>
	<polygon fill-rule="evenodd" clip-rule="evenodd" fill="#CFEDDF" points="-647.4,-81.2 -614.8,-81.2 -647.4,-149.8 -647.4,-81.2 	
		"/>
	<polygon fill-rule="evenodd" clip-rule="evenodd" fill="#E5F7EF" points="-545.5,-81.2 -481.2,-81.2 -481.2,-183.9 -513.4,-210 
		-545.5,-183.9 -545.5,-81.2 	"/>
	<polygon fill-rule="evenodd" clip-rule="evenodd" fill="#E5F7EF" points="-368.1,-86 -368.1,-157.9 -400.3,-183.9 -410.7,-175.5 
		-368.1,-86 	"/>
	<polygon fill-rule="evenodd" clip-rule="evenodd" fill="#CFEDDF" points="-730.5,-112.6 -730.5,-236.8 -789.6,-236.8 
		-730.5,-112.6 	"/>
	<path fill-rule="evenodd" clip-rule="evenodd" fill="#B0C845" d="M-300.7-81.2H-423c44.4,0,64.2-82.3,122.2-82.3V-81.2L-300.7-81.2
		z"/>
	<path fill-rule="evenodd" clip-rule="evenodd" fill="#849932" d="M-300.7-81.2h122.2c-44.4,0-64.2-82.3-122.2-82.3V-81.2
		L-300.7-81.2z"/>
	<path fill-rule="evenodd" clip-rule="evenodd" fill="#B0C845" d="M-496.9-81.2h-144.1c52.4,0,75.7-58.5,144.1-58.5V-81.2
		L-496.9-81.2z"/>
	<path fill-rule="evenodd" clip-rule="evenodd" fill="#849932" d="M-496.9-81.2h144.1c-52.4,0-75.7-58.5-144.1-58.5V-81.2
		L-496.9-81.2z"/>
	<path fill-rule="evenodd" clip-rule="evenodd" fill="#B0C845" d="M14.4-81.2h-174.8c63.6,0,91.9-124.1,174.8-124.1V-81.2L14.4-81.2
		z"/>
	<path fill-rule="evenodd" clip-rule="evenodd" fill="#849932" d="M14.4-81.2h174.8c-63.6,0-91.9-124.1-174.8-124.1V-81.2L14.4-81.2
		z"/>
	<polygon fill-rule="evenodd" clip-rule="evenodd" fill="#DEDDDD" points="-178.3,-81.2 -188.3,-81.2 -188.3,-316.9 -184.4,-316.9 
		-178.3,-81.2 	"/>
	<polygon fill-rule="evenodd" clip-rule="evenodd" fill="#FFFFFF" points="-198.3,-81.2 -188.3,-81.2 -188.3,-316.9 -192.3,-316.9 
		-198.3,-81.2 	"/>
	<path fill-rule="evenodd" clip-rule="evenodd" fill="#DEDDDD" d="M-188.3-316.9l0.2-4.7c1.5-5.3,3.3-11.8,6.1-18.3
		c4.1-9.4,22.4-34.4,34.6-52.2c1.3-1.9,2.6-1.6,3.2-1.3L-188.3-316.9L-188.3-316.9z"/>
	<path fill-rule="evenodd" clip-rule="evenodd" fill="#FFFFFF" d="M-188.3-316.9l4-2.5c3.8-4,8.6-8.8,12.7-14.4
		c6.1-8.3,18.7-36.6,27.9-56.1c1-2.1,0.1-3-0.5-3.4L-188.3-316.9L-188.3-316.9z"/>
	<path fill-rule="evenodd" clip-rule="evenodd" fill="#DEDDDD" d="M-188.3-316.9l-4.2,2.2c-5.3,1.3-11.9,3-18.9,3.8
		c-10.2,1.2-41-2.1-62.5-3.9c-2.3-0.1-2.7-1.4-2.7-2.1L-188.3-316.9L-188.3-316.9z"/>
	<path fill-rule="evenodd" clip-rule="evenodd" fill="#FFFFFF" d="M-188.3-316.9l-4.2-2.2c-5.3-1.3-11.9-3-18.9-3.8
		c-10.2-1.2-41,2.1-62.5,3.9c-2.3,0.1-2.7,1.4-2.7,2.1L-188.3-316.9L-188.3-316.9z"/>
	<path fill-rule="evenodd" clip-rule="evenodd" fill="#DEDDDD" d="M-188.3-316.9l0.2,4.7c1.5,5.3,3.3,11.8,6.1,18.3
		c4.1,9.4,22.4,34.4,34.6,52.2c1.3,1.9,2.6,1.6,3.2,1.3L-188.3-316.9L-188.3-316.9z"/>
	<path fill-rule="evenodd" clip-rule="evenodd" fill="#FFFFFF" d="M-188.3-316.9l4,2.5c3.8,4,8.6,8.8,12.7,14.4
		c6.1,8.3,18.7,36.6,27.9,56.1c1,2.1,0.1,3-0.5,3.4L-188.3-316.9L-188.3-316.9z"/>
	<path fill-rule="evenodd" clip-rule="evenodd" fill="#3B5357" d="M-188.3-327.4c5.8,0,10.5,4.7,10.5,10.5c0,5.8-4.7,10.5-10.5,10.5
		V-327.4L-188.3-327.4z"/>
	<path fill-rule="evenodd" clip-rule="evenodd" fill="#87B2AA" d="M-188.3-322.5c3.1,0,5.6,2.5,5.6,5.6c0,3.1-2.5,5.6-5.6,5.6
		L-188.3-322.5L-188.3-322.5L-188.3-322.5z"/>
	<path fill-rule="evenodd" clip-rule="evenodd" fill="#719A9D" d="M-188.3-306.4c-5.8,0-10.5-4.7-10.5-10.5
		c0-5.8,4.7-10.5,10.5-10.5V-306.4L-188.3-306.4z"/>
	<path fill-rule="evenodd" clip-rule="evenodd" fill="#C4E8D4" d="M-188.3-311.3c-3.1,0-5.6-2.5-5.6-5.6c0-3.1,2.5-5.6,5.6-5.6
		V-311.3L-188.3-311.3z"/>
	<polygon fill-rule="evenodd" clip-rule="evenodd" fill="#DEDDDD" points="-46.6,-81.2 -55.4,-81.2 -55.4,-288.1 -51.9,-288.1 
		-46.6,-81.2 	"/>
	<polygon fill-rule="evenodd" clip-rule="evenodd" fill="#FFFFFF" points="-64.1,-81.2 -55.4,-81.2 -55.4,-288.1 -58.8,-288.1 
		-64.1,-81.2 	"/>
	<path fill-rule="evenodd" clip-rule="evenodd" fill="#DEDDDD" d="M-55.4-288.1l1.2-3.9c2.5-4.1,5.5-9.3,9.3-14.1
		c5.6-7.1,26.8-24.1,41.2-36.4c1.5-1.3,2.5-0.8,3-0.4L-55.4-288.1L-55.4-288.1z"/>
	<path fill-rule="evenodd" clip-rule="evenodd" fill="#FFFFFF" d="M-55.4-288.1l3.9-1.2c4.1-2.5,9.3-5.5,14.1-9.3
		c7.1-5.6,24.1-26.8,36.4-41.2c1.3-1.5,0.8-2.5,0.4-3L-55.4-288.1L-55.4-288.1z"/>
	<path fill-rule="evenodd" clip-rule="evenodd" fill="#DEDDDD" d="M-55.4-288.1l-4,0.9c-4.8-0.1-10.8-0.1-16.9-1.1
		c-8.9-1.3-34.3-11.1-52.1-17.5c-1.9-0.6-2-1.8-1.8-2.4L-55.4-288.1L-55.4-288.1z"/>
	<path fill-rule="evenodd" clip-rule="evenodd" fill="#FFFFFF" d="M-55.4-288.1l-3.1-2.8c-4.2-2.3-9.4-5.3-15.1-7.5
		c-8.4-3.3-35.3-7.5-53.9-10.9c-2-0.4-2.6,0.6-2.8,1.2L-55.4-288.1L-55.4-288.1z"/>
	<path fill-rule="evenodd" clip-rule="evenodd" fill="#DEDDDD" d="M-55.4-288.1l-0.9,4c0.1,4.8,0.1,10.8,1.1,16.9
		c1.3,8.9,11.1,34.3,17.5,52.1c0.6,1.9,1.8,2,2.4,1.8L-55.4-288.1L-55.4-288.1z"/>
	<path fill-rule="evenodd" clip-rule="evenodd" fill="#FFFFFF" d="M-55.4-288.1l2.8,3.1c2.3,4.2,5.3,9.4,7.5,15.1
		c3.3,8.4,7.5,35.3,10.9,53.9c0.4,2-0.6,2.6-1.2,2.8L-55.4-288.1L-55.4-288.1z"/>
	<path fill-rule="evenodd" clip-rule="evenodd" fill="#3B5357" d="M-55.4-297.2c5.1,0,9.2,4.1,9.2,9.2c0,5.1-4.1,9.2-9.2,9.2V-297.2
		L-55.4-297.2z"/>
	<path fill-rule="evenodd" clip-rule="evenodd" fill="#87B2AA" d="M-55.4-293c2.7,0,4.9,2.2,4.9,4.9c0,2.7-2.2,4.9-4.9,4.9
		L-55.4-293L-55.4-293L-55.4-293z"/>
	<path fill-rule="evenodd" clip-rule="evenodd" fill="#719A9D" d="M-55.4-278.9c-5.1,0-9.2-4.1-9.2-9.2c0-5.1,4.1-9.2,9.2-9.2
		V-278.9L-55.4-278.9z"/>
	<path fill-rule="evenodd" clip-rule="evenodd" fill="#C4E8D4" d="M-55.4-283.2c-2.7,0-4.9-2.2-4.9-4.9c0-2.7,2.2-4.9,4.9-4.9
		V-283.2L-55.4-283.2z"/>
	<polygon fill-rule="evenodd" clip-rule="evenodd" fill="#DEDDDD" points="-334.7,-81.2 -345.9,-81.2 -345.9,-345.2 -341.5,-345.2 
		-334.7,-81.2 	"/>
	<polygon fill-rule="evenodd" clip-rule="evenodd" fill="#FFFFFF" points="-357.1,-81.2 -345.9,-81.2 -345.9,-345.2 -350.3,-345.2 
		-357.1,-81.2 	"/>
	<polygon fill-rule="evenodd" clip-rule="evenodd" fill="#EBEBEB" points="-109.5,-188.9 -217.7,-188.9 -180.2,-110.1 
		-159.6,-110.1 -109.5,-188.9 	"/>
	<polygon fill-rule="evenodd" clip-rule="evenodd" fill="#9FB73A" points="-953,-62.5 247,-62.5 247,-34.1 -953,-34.1 -953,-62.5 	
		"/>
	<path fill-rule="evenodd" clip-rule="evenodd" fill="#DEDDDD" d="M-345.9-345.2l-1.1-5.2c0.1-6.1,0.2-13.8,1.3-21.5
		c1.7-11.4,14.2-43.7,22.3-66.5c0.8-2.4,2.3-2.5,3.1-2.3L-345.9-345.2L-345.9-345.2z"/>
	<path fill-rule="evenodd" clip-rule="evenodd" fill="#FFFFFF" d="M-345.9-345.2l3.6-3.9c3-5.4,6.7-12,9.6-19.3
		c4.2-10.7,9.6-45,13.9-68.8c0.5-2.5-0.8-3.3-1.5-3.5L-345.9-345.2L-345.9-345.2z"/>
	<path fill-rule="evenodd" clip-rule="evenodd" fill="#DEDDDD" d="M-345.9-345.2l-3.9,3.6c-5.4,3-12,6.7-19.3,9.6
		c-10.7,4.2-45,9.6-68.8,13.9c-2.5,0.5-3.3-0.8-3.5-1.5L-345.9-345.2L-345.9-345.2z"/>
	<path fill-rule="evenodd" clip-rule="evenodd" fill="#FFFFFF" d="M-345.9-345.2l-5.2-1.1c-6.1,0.1-13.8,0.2-21.5,1.3
		c-11.4,1.7-43.7,14.2-66.5,22.3c-2.4,0.8-2.5,2.3-2.3,3.1L-345.9-345.2L-345.9-345.2z"/>
	<path fill-rule="evenodd" clip-rule="evenodd" fill="#DEDDDD" d="M-345.9-345.2l1.6,5c3.2,5.3,7,11.8,11.9,18
		c7.2,9,34.2,30.8,52.6,46.4c1.9,1.7,3.2,1,3.8,0.5L-345.9-345.2L-345.9-345.2z"/>
	<path fill-rule="evenodd" clip-rule="evenodd" fill="#FFFFFF" d="M-345.9-345.2l5,1.6c5.3,3.2,11.8,7,18,11.9
		c9,7.2,30.8,34.2,46.4,52.6c1.7,1.9,1,3.2,0.5,3.8L-345.9-345.2L-345.9-345.2z"/>
	<path fill-rule="evenodd" clip-rule="evenodd" fill="#ABC341" d="M-367.2,39.6h207.4c4.9,0,8.9,4,8.9,8.9c0,4.9-4,8.9-8.9,8.9
		h-207.4c-4.9,0-8.9-4-8.9-8.9C-376.2,43.6-372.1,39.6-367.2,39.6L-367.2,39.6z"/>
	<path fill-rule="evenodd" clip-rule="evenodd" fill="#9FB73A" d="M77.6-8.5H50c-3,0-5.4,2.4-5.4,5.5c0,3,2.4,5.4,5.4,5.4h-749.1
		c3,0,5.4-2.4,5.4-5.5c0-3-2.4-5.4-5.4-5.4H-833c-4.6,0-8.2-3.7-8.2-8.2c0-4.6,3.7-8.2,8.2-8.2c2.4,0,4.4-2,4.4-4.4
		c0-2.4-2-4.4-4.4-4.4l-120,0v-19.1H247v19.1H77.6c-2.4,0-4.4,2-4.4,4.4c0,2.4,1.9,4.4,4.4,4.4h64.9c4.6,0,8.2,3.7,8.2,8.2
		c0,4.6-3.7,8.2-8.2,8.2H77.6L77.6-8.5z"/>
	<path fill-rule="evenodd" clip-rule="evenodd" fill="#C0DA4E" d="M-707.8,2.4h769c6.4,0,11.5,5.2,11.5,11.5
		c0,6.4-5.2,11.5-11.5,11.5h-769c-6.4,0-11.5-5.2-11.5-11.5C-719.3,7.6-714.2,2.4-707.8,2.4L-707.8,2.4z"/>
	<path fill-rule="evenodd" clip-rule="evenodd" fill="#ABC341" d="M-45.6,57.5c4.9,0,8.9-4,8.9-8.9s-4-8.9-8.9-8.9h-68
		c-4.9,0-8.9,4-8.9,8.9c0,4.9,4,8.9,8.9,8.9H-45.6L-45.6,57.5z"/>
	<path fill-rule="evenodd" clip-rule="evenodd" fill="#ABC341" d="M184.9-8.5c4.6,0,8.2-3.7,8.2-8.2c0-4.6-3.7-8.2-8.2-8.2h-13.4
		c-4.6,0-8.2,3.7-8.2,8.2c0,4.6,3.7,8.2,8.2,8.2H184.9L184.9-8.5z"/>
	<polygon fill-rule="evenodd" clip-rule="evenodd" fill="#D8D8D8" points="-217.7,-188.9 -237.5,-188.9 -287.7,-110.1 
		-180.2,-110.1 -217.7,-188.9 	"/>
	<polygon fill-rule="evenodd" clip-rule="evenodd" fill="#989898" points="-159.6,-110.1 -287.7,-110.1 -285.1,-103.7 -157,-103.7 
		-159.6,-110.1 	"/>
	<polygon fill-rule="evenodd" clip-rule="evenodd" fill="#656666" points="-159.6,-110.1 -109.5,-188.9 -59.3,-110.1 -61.9,-103.7 
		-109.5,-178.3 -157,-103.7 -159.6,-110.1 	"/>
	<polygon fill-rule="evenodd" clip-rule="evenodd" fill="#959595" points="-76,-112.6 -113.7,-171.7 -109.5,-178.3 -61.9,-103.7 
		-76,-103.7 -76,-112.6 	"/>
	<polygon fill-rule="evenodd" clip-rule="evenodd" fill="#3B5357" points="-131,-178.6 -133.6,-185 -170.6,-126.9 -168,-120.4 
		-131,-178.6 	"/>
	<polygon fill-rule="evenodd" clip-rule="evenodd" fill="#537679" points="-170.6,-126.9 -268.5,-126.9 -265.9,-120.4 -168,-120.4 
		-170.6,-126.9 	"/>
	<polygon fill-rule="evenodd" clip-rule="evenodd" fill="#314054" points="-214.7,-185 -231.5,-185 -268.5,-126.9 -187,-126.9 
		-214.7,-185 	"/>
	<polygon fill-rule="evenodd" clip-rule="evenodd" fill="#567A81" points="-133.6,-185 -214.7,-185 -187,-126.9 -170.6,-126.9 
		-133.6,-185 	"/>
	<path fill-rule="evenodd" clip-rule="evenodd" fill="#A0D0C7" d="M-187-126.9l-14.6,0l0,0c-1.7,0-3.5,0-5.2,0l0,0l-25.7,0l0,0
		c-1.7,0-3.5,0-5.2,0l0,0l-25.7,0l0,0l-5.2,0l0,0h0l2.7-4.4h0.1l15.2-23.8l1.9-3h0.1l16.6-26l0.5-0.9l16.8,0l2.1,4.4l-16.5,0
		l-14.3,22.5l25.7,0l9.1-14.2l2.2,4.7l-6.1,9.5l10.6,0l2.1,4.4l-15.5,0l-14.3,22.5l25.7,0l8.5-13.3l2.2,4.7l-5.5,8.7l9.7,0
		L-187-126.9L-187-126.9z M-234.8-131.3l14.3-22.5l-25.7,0l-14.3,22.5L-234.8-131.3L-234.8-131.3z"/>
	<path fill-rule="evenodd" clip-rule="evenodd" fill="#DAFFEA" d="M-133.5-185l-2.8,4.4h-0.1l-14.3,22.5h0.1
		c-0.9,1.5-1.9,2.9-2.8,4.4h-0.1l-14.3,22.5h0l-2.8,4.4l-16.3,0l-2.1-4.4l16,0l14.3-22.5l-25.7,0l-8.8,13.8l-2.2-4.7l5.8-9.1
		l-10.2,0l-2.1-4.4l15.1,0l14.3-22.5l-25.7,0l-8.2,12.9l-2.2-4.7l5.3-8.3l-9.2,0l-2.1-4.4l75.8,0l0,0l5.2,0l0,0H-133.5L-133.5-185z
		 M-167.3-180.6l-14.3,22.5l25.7,0l14.3-22.5L-167.3-180.6L-167.3-180.6z"/>
	<path fill-rule="evenodd" clip-rule="evenodd" fill="#3B5357" d="M-345.9-356.9c6.5,0,11.7,5.3,11.7,11.7c0,6.5-5.3,11.7-11.7,11.7
		V-356.9L-345.9-356.9z"/>
	<path fill-rule="evenodd" clip-rule="evenodd" fill="#87B2AA" d="M-345.9-351.4c3.4,0,6.2,2.8,6.2,6.2c0,3.4-2.8,6.2-6.2,6.2
		L-345.9-351.4L-345.9-351.4L-345.9-351.4z"/>
	<path fill-rule="evenodd" clip-rule="evenodd" fill="#719A9D" d="M-345.9-333.4c-6.5,0-11.7-5.3-11.7-11.7
		c0-6.5,5.3-11.7,11.7-11.7V-333.4L-345.9-333.4z"/>
	<path fill-rule="evenodd" clip-rule="evenodd" fill="#C4E8D4" d="M-345.9-338.9c-3.4,0-6.2-2.8-6.2-6.2c0-3.4,2.8-6.2,6.2-6.2
		V-338.9L-345.9-338.9z"/>
	<path fill-rule="evenodd" clip-rule="evenodd" fill="#70812A" d="M-433.7-25h412.2c4.5,0,8.2,3.7,8.2,8.2c0,4.5-3.7,8.2-8.2,8.2
		h-412.2c-4.6,0-8.2-3.7-8.2-8.2C-441.9-21.3-438.2-25-433.7-25L-433.7-25z"/>
	<polygon fill-rule="evenodd" clip-rule="evenodd" fill="#AFAFAF" points="-76,-112.6 -113.7,-171.7 -145.6,-121.7 -99.5,-25 
		-76,-25 -76,-112.6 	"/>
	<polygon fill-rule="evenodd" clip-rule="evenodd" fill="#FAFAFA" points="-159.8,-25 -159.8,-92.1 -222,-92.1 -190,-25 -159.8,-25 
			"/>
	<polygon fill-rule="evenodd" clip-rule="evenodd" fill="#EFEDED" points="-271,-92.1 -271,-25 -190,-25 -222,-92.1 -271,-92.1 	"/>
	<polygon fill-rule="evenodd" clip-rule="evenodd" fill="#9B9B9B" points="-145.6,-121.7 -157,-103.7 -159.8,-103.7 -159.8,-25 
		-99.5,-25 -145.6,-121.7 	"/>
	<polygon fill-rule="evenodd" clip-rule="evenodd" fill="#656666" points="-127.2,-83.1 -111.4,-83.1 -111.4,-50 -127.2,-83.1 	"/>
	<polygon fill-rule="evenodd" clip-rule="evenodd" fill="#FAFAFA" points="-111.4,-83.1 -107.4,-83.1 -107.4,-41.6 -111.4,-50 
		-111.4,-83.1 	"/>
	<polygon fill-rule="evenodd" clip-rule="evenodd" fill="#EFEDED" points="-107.4,-41.6 -107.4,-25 -111.4,-25 -111.4,-50 
		-107.4,-41.6 	"/>
	<polygon fill-rule="evenodd" clip-rule="evenodd" fill="#4E4E4E" points="-128.3,-83.1 -127.2,-83.1 -111.4,-50 -111.4,-25 
		-128.3,-25 -128.3,-83.1 	"/>
	<polygon fill-rule="evenodd" clip-rule="evenodd" fill="#BCBCBC" points="-271,-103.7 -271,-92.1 -222,-92.1 -227.5,-103.7 
		-271,-103.7 	"/>
	<polygon fill-rule="evenodd" clip-rule="evenodd" fill="#D0D0D0" points="-159.8,-92.1 -159.8,-103.7 -227.5,-103.7 -222,-92.1 
		-159.8,-92.1 	"/>
	<path fill-rule="evenodd" clip-rule="evenodd" fill="#F2FFFA" d="M-213.6-472c3.6,2.8,5.6,7.2,5.9,12.2c7.4-5.7,16.2-7.1,21.7-2.7
		c7.1,5.6,6.3,18.5-1.8,28.8c-5.6,7.1-13.2,11.2-19.7,11.2l-32.4,0c-3.8,0-7.3-1-10.1-3.2c-2.6-2.1-4.4-4.9-5.3-8.3
		c-0.6,0.9-1.2,1.9-1.9,2.8c-6.3,8.1-16,11-21.5,6.7c-5.5-4.4-4.9-14.4,1.4-22.5c6.3-8.1,16-11,21.5-6.7c0.9,0.7,1.6,1.5,2.2,2.4
		c1.4-3.5,3.3-6.9,5.9-10.2C-237.7-474.2-222.4-479-213.6-472L-213.6-472z M-168.9-439c4.1,3.2,4.8,9,1.7,13c-3.1,4-9,4.6-13,1.5
		c-4.1-3.2-4.8-9-1.7-13C-178.7-441.5-172.9-442.2-168.9-439L-168.9-439z"/>
	<path fill-rule="evenodd" clip-rule="evenodd" fill="#D0F2EC" d="M-210.2-451.1c16.2-12.5,30.2-4.3,26.2,11.2
		c-1,2.1-2.3,4.2-3.9,6.2c-5.6,7.1-13.2,11.2-19.7,11.2l-32.4,0c-3.8,0-7.3-1-10.1-3.2c-2.6-2.1-4.4-4.9-5.3-8.3
		c-0.6,0.9-1.2,1.9-1.9,2.8c-6.3,8.1-16,11-21.5,6.7c0,0-0.1-0.1-0.1-0.1c-7.4-15.4,14.7-34.6,24-19.4
		C-245.7-467.2-208.5-475.9-210.2-451.1L-210.2-451.1z M-168.5-435.7c1.7,1.3,2.8,3.2,3.2,5.2c-0.2,1.6-0.8,3.2-1.9,4.5
		c-3.1,4-9,4.6-13,1.5c-0.5-0.4-0.9-0.8-1.3-1.2c-1.2-2.8-0.9-6.1,1.1-8.6C-177.6-438-172.2-438.6-168.5-435.7L-168.5-435.7z"/>
	<path fill-rule="evenodd" clip-rule="evenodd" fill="#B0C845" d="M-768.5-81.2h-120.8c43.9,0,63.5-70.6,120.8-70.6V-81.2
		L-768.5-81.2z"/>
	<path fill-rule="evenodd" clip-rule="evenodd" fill="#849932" d="M-768.5-81.2h120.8c-43.9,0-63.5-70.6-120.8-70.6V-81.2
		L-768.5-81.2z"/>
	<path fill-rule="evenodd" clip-rule="evenodd" fill="#93AA39" d="M-90.7-119.5c2.3,0,4.1,1.8,4.1,4.1c0,2.3-1.8,4.1-4.1,4.1
		c-2.3,0-4.1-1.8-4.1-4.1C-94.9-117.6-93-119.5-90.7-119.5L-90.7-119.5z"/>
	<path fill-rule="evenodd" clip-rule="evenodd" fill="#70812A" d="M-37.8-138.8c23.9,0,43.3,19.4,43.3,43.3
		c0,23.9-19.4,43.3-43.3,43.3c-23.9,0-43.3-19.4-43.3-43.3C-81.1-119.5-61.7-138.8-37.8-138.8L-37.8-138.8z"/>
	<path fill-rule="evenodd" clip-rule="evenodd" fill="#93AA39" d="M-20.2-129.4c10,12.3,6,32.2-9,44.4c-15,12.2-35.3,12-45.3-0.3
		c-4.8-6-6.4-13.7-5-21.4c4.8-17.7,20.5-31,39.5-32C-32.3-138.5-25.1-135.4-20.2-129.4L-20.2-129.4z"/>
	<path fill-rule="evenodd" clip-rule="evenodd" fill="#93AA39" d="M-37.8-52.3c-23.9,0-43.3-19.4-43.3-43.3
		c0-23.9,19.4-43.3,43.3-43.3V-52.3L-37.8-52.3z"/>
	<path fill-rule="evenodd" clip-rule="evenodd" fill="#C0DA4E" d="M-37.8-79.7c-13.4,6.4-28.6,4.4-36.8-5.7c-4.8-6-6.4-13.7-5-21.4
		c4.8-17.7,20.5-31,39.5-32c0.8,0,1.5,0.1,2.3,0.2V-79.7L-37.8-79.7z"/>
	<path fill-rule="evenodd" clip-rule="evenodd" fill="#93AA39" d="M-52.2-92.5c3.6,0,6.4,2.9,6.4,6.4c0,3.6-2.9,6.4-6.4,6.4
		c-3.6,0-6.4-2.9-6.4-6.4C-58.6-89.6-55.8-92.5-52.2-92.5L-52.2-92.5z"/>
	<path fill-rule="evenodd" clip-rule="evenodd" fill="#93AA39" d="M-64-99.5c2.1,0,3.8,1.7,3.8,3.8s-1.7,3.8-3.8,3.8
		c-2.1,0-3.8-1.7-3.8-3.8S-66.1-99.5-64-99.5L-64-99.5z"/>
	<polygon fill-rule="evenodd" clip-rule="evenodd" fill="#876542" points="-39.7,-66.6 -48.6,-71.2 -49.3,-70.3 -39.8,-63.5 
		-40.4,-25 -37.8,-25 -37.8,-74.2 -39.6,-74.6 -39.7,-66.6 	"/>
	<path fill-rule="evenodd" clip-rule="evenodd" fill="#3F3323" d="M-35.8-60.4l11.8-6.5l1.1,0.8l-12.9,8.9L-35.8-60.4L-35.8-60.4z
		 M-35.1-25L-36-73.7l-1.8-0.4V-25H-35.1L-35.1-25z"/>
	<path fill-rule="evenodd" clip-rule="evenodd" fill="#70812A" d="M-649.8-25h191.1c4.6,0,8.2,3.7,8.2,8.2c0,4.6-3.7,8.2-8.2,8.2
		h-191.1c-4.6,0-8.2-3.7-8.2-8.2C-658-21.3-654.3-25-649.8-25L-649.8-25z"/>
	<polygon fill-rule="evenodd" clip-rule="evenodd" fill="#3B5357" points="-416.2,-98.3 -418.8,-104.8 -455.8,-46.6 -453.2,-40.2 
		-416.2,-98.3 	"/>
	<polygon fill-rule="evenodd" clip-rule="evenodd" fill="#537679" points="-455.8,-46.6 -553.6,-46.6 -551.1,-40.1 -453.2,-40.2 
		-455.8,-46.6 	"/>
	<polygon fill-rule="evenodd" clip-rule="evenodd" fill="#314054" points="-499.8,-104.8 -516.6,-104.8 -553.6,-46.6 -472.1,-46.6 
		-499.8,-104.8 	"/>
	<polygon fill-rule="evenodd" clip-rule="evenodd" fill="#567A81" points="-418.8,-104.8 -499.8,-104.8 -472.1,-46.6 -455.8,-46.6 
		-418.8,-104.8 	"/>
	<path fill-rule="evenodd" clip-rule="evenodd" fill="#A0D0C7" d="M-472.1-46.6l-14.6,0l0,0c-1.7,0-3.5,0-5.2,0l0,0l-25.7,0l0,0
		c-1.7,0-3.5,0-5.2,0l0,0l-25.7,0l0,0l-5.2,0l0,0h0l2.7-4.4h0.1l15.2-23.8l1.9-3h0.1l16.6-26l0.5-0.9l16.8,0l2.1,4.4l-16.5,0
		l-14.3,22.5l25.7,0l9.1-14.2l2.2,4.7l-6.1,9.5l10.6,0l2.1,4.4l-15.5,0L-514.8-51l25.7,0l8.5-13.3l2.2,4.7l-5.5,8.7l9.7,0
		L-472.1-46.6L-472.1-46.6z M-520-51l14.3-22.5l-25.7,0L-545.6-51L-520-51L-520-51z"/>
	<path fill-rule="evenodd" clip-rule="evenodd" fill="#DAFFEA" d="M-418.7-104.7l-2.8,4.4h-0.1l-14.3,22.5h0.1
		c-0.9,1.5-1.9,2.9-2.8,4.4h-0.1L-453-51h0l-2.8,4.4l-16.3,0l-2.1-4.4l16,0l14.3-22.5l-25.7,0l-8.8,13.8l-2.2-4.7l5.8-9.1l-10.2,0
		l-2.1-4.4l15.1,0l14.3-22.5l-25.7,0l-8.2,12.9l-2.2-4.7l5.3-8.3l-9.2,0l-2.1-4.4l75.8,0l0,0l5.2,0l0,0H-418.7L-418.7-104.7z
		 M-452.4-100.4l-14.3,22.5l25.7,0l14.3-22.5L-452.4-100.4L-452.4-100.4z"/>
	<polygon fill-rule="evenodd" clip-rule="evenodd" fill="#33484B" points="-489.2,-16.7 -478,-16.7 -478,-40.2 -489.2,-40.2 
		-489.2,-16.7 	"/>
	<polygon fill-rule="evenodd" clip-rule="evenodd" fill="#3B5357" points="-301.6,-98.3 -304.2,-104.8 -341.2,-46.6 -338.6,-40.2 
		-301.6,-98.3 	"/>
	<polygon fill-rule="evenodd" clip-rule="evenodd" fill="#537679" points="-341.2,-46.6 -439.1,-46.6 -436.5,-40.1 -338.6,-40.2 
		-341.2,-46.6 	"/>
	<polygon fill-rule="evenodd" clip-rule="evenodd" fill="#314054" points="-385.3,-104.8 -402.1,-104.8 -439.1,-46.6 -357.6,-46.6 
		-385.3,-104.8 	"/>
	<polygon fill-rule="evenodd" clip-rule="evenodd" fill="#567A81" points="-304.2,-104.8 -385.3,-104.8 -357.6,-46.6 -341.2,-46.6 
		-304.2,-104.8 	"/>
	<path fill-rule="evenodd" clip-rule="evenodd" fill="#A0D0C7" d="M-357.6-46.6l-14.6,0l0,0c-1.7,0-3.5,0-5.2,0l0,0l-25.7,0l0,0
		c-1.7,0-3.5,0-5.2,0l0,0l-25.7,0l0,0l-5.2,0l0,0h0l2.7-4.4h0.1l15.2-23.8l1.9-3h0.1l16.6-26l0.5-0.9l16.8,0l2.1,4.4l-16.5,0
		L-414-77.9l25.7,0l9.1-14.2l2.2,4.7l-6.1,9.5l10.6,0l2.1,4.4l-15.5,0L-400.2-51l25.7,0l8.5-13.3l2.2,4.7l-5.5,8.7l9.7,0
		L-357.6-46.6L-357.6-46.6z M-405.4-51l14.3-22.5l-25.7,0L-431.1-51L-405.4-51L-405.4-51z"/>
	<path fill-rule="evenodd" clip-rule="evenodd" fill="#DAFFEA" d="M-304.1-104.7l-2.8,4.4h-0.1l-14.3,22.5h0.1
		c-0.9,1.5-1.9,2.9-2.8,4.4h-0.1L-338.4-51h0l-2.8,4.4l-16.3,0l-2.1-4.4l16,0l14.3-22.5l-25.7,0l-8.8,13.8l-2.2-4.7l5.8-9.1l-10.2,0
		l-2.1-4.4l15.1,0l14.3-22.5l-25.7,0l-8.2,12.9l-2.2-4.7l5.3-8.3l-9.2,0l-2.1-4.4l75.8,0l0,0l5.2,0l0,0H-304.1L-304.1-104.7z
		 M-337.9-100.4l-14.3,22.5l25.7,0l14.3-22.5L-337.9-100.4L-337.9-100.4z"/>
	<polygon fill-rule="evenodd" clip-rule="evenodd" fill="#33484B" points="-374.6,-16.7 -363.5,-16.7 -363.5,-40.2 -374.6,-40.2 
		-374.6,-16.7 	"/>
	<polygon fill-rule="evenodd" clip-rule="evenodd" fill="#3B5357" points="-530.7,-98.3 -533.3,-104.8 -570.4,-46.6 -567.8,-40.2 
		-530.7,-98.3 	"/>
	<polygon fill-rule="evenodd" clip-rule="evenodd" fill="#537679" points="-570.4,-46.6 -668.2,-46.6 -665.6,-40.1 -567.8,-40.2 
		-570.4,-46.6 	"/>
	<polygon fill-rule="evenodd" clip-rule="evenodd" fill="#314054" points="-614.4,-104.8 -631.2,-104.8 -668.2,-46.6 -586.7,-46.6 
		-614.4,-104.8 	"/>
	<polygon fill-rule="evenodd" clip-rule="evenodd" fill="#567A81" points="-533.3,-104.8 -614.4,-104.8 -586.7,-46.6 -570.4,-46.6 
		-533.3,-104.8 	"/>
	<path fill-rule="evenodd" clip-rule="evenodd" fill="#A0D0C7" d="M-586.7-46.6l-14.6,0l0,0c-1.7,0-3.5,0-5.2,0l0,0l-25.7,0l0,0
		c-1.7,0-3.5,0-5.2,0l0,0l-25.7,0l0,0l-5.2,0l0,0h0l2.7-4.4h0.1l15.2-23.8l1.9-3h0.1l16.6-26l0.5-0.9l16.8,0l2.1,4.4l-16.5,0
		l-14.3,22.5l25.7,0l9.1-14.2l2.2,4.7l-6.1,9.5l10.6,0l2.1,4.4l-15.5,0L-629.3-51l25.7,0l8.5-13.3l2.2,4.7l-5.5,8.7l9.7,0
		L-586.7-46.6L-586.7-46.6z M-634.5-51l14.3-22.5l-25.7,0L-660.2-51L-634.5-51L-634.5-51z"/>
	<path fill-rule="evenodd" clip-rule="evenodd" fill="#DAFFEA" d="M-533.2-104.7l-2.8,4.4h-0.1l-14.3,22.5h0.1
		c-0.9,1.5-1.9,2.9-2.8,4.4h-0.1L-567.6-51h0l-2.8,4.4l-16.3,0l-2.1-4.4l16,0l14.3-22.5l-25.7,0l-8.8,13.8l-2.2-4.7l5.8-9.1l-10.2,0
		l-2.1-4.4l15.1,0l14.3-22.5l-25.7,0l-8.2,12.9l-2.2-4.7l5.3-8.3l-9.2,0l-2.1-4.4l75.8,0l0,0l5.2,0l0,0H-533.2L-533.2-104.7z
		 M-567-100.4l-14.3,22.5l25.7,0l14.3-22.5L-567-100.4L-567-100.4z"/>
	<polygon fill-rule="evenodd" clip-rule="evenodd" fill="#33484B" points="-603.7,-16.7 -592.6,-16.7 -592.6,-40.2 -603.7,-40.2 
		-603.7,-16.7 	"/>
	<path fill-rule="evenodd" clip-rule="evenodd" fill="#C0DA4E" d="M5.3-174.8c2.3,0,4.1,1.8,4.1,4.1c0,2.3-1.8,4.1-4.1,4.1
		s-4.1-1.8-4.1-4.1C1.1-173,3-174.8,5.3-174.8L5.3-174.8z"/>
	<path fill-rule="evenodd" clip-rule="evenodd" fill="#93AA39" d="M-7-145.4c2.8,0,5.1,2.3,5.1,5.1c0,2.8-2.3,5.1-5.1,5.1
		c-2.8,0-5.1-2.3-5.1-5.1C-12.2-143.1-9.9-145.4-7-145.4L-7-145.4z"/>
	<path fill-rule="evenodd" clip-rule="evenodd" fill="#93AA39" d="M66.4-76.2c3.6,0,6.4,2.9,6.4,6.4c0,3.6-2.9,6.4-6.4,6.4
		c-3.6,0-6.4-2.9-6.4-6.4C60-73.3,62.8-76.2,66.4-76.2L66.4-76.2z"/>
	<polygon fill-rule="evenodd" clip-rule="evenodd" fill="#60858F" points="-202.2,-83.1 -186,-83.1 -186,-49.1 -202.2,-83.1 	"/>
	<polygon fill-rule="evenodd" clip-rule="evenodd" fill="#9B9B9B" points="-210.8,-83.1 -206,-83.1 -206,-47.8 -210.8,-47.8 
		-210.8,-83.1 	"/>
	<path fill-rule="evenodd" clip-rule="evenodd" fill="#49606A" d="M-206-83.1h3.8c5.4,11.3,10.8,22.7,16.2,34v1.3h-20V-83.1
		L-206-83.1z"/>
	<path fill-rule="evenodd" clip-rule="evenodd" fill="#F2FFFA" d="M-41.8-486.3c6.2,4.9,7.6,14.3,4.3,24c4-2.1,8.2-2.2,11.1,0.1
		c4.6,3.6,4.1,11.9-1.2,18.6c-5.2,6.7-13.2,9.1-17.8,5.5c-2.1-1.7-3.2-4.4-3.1-7.4c-6.1,5.7-13.3,9.1-19.7,9.1l-33.6,0
		c-2.1,0-4-0.8-5.6-2c-5.6-4.4-4.9-14.5,1.4-22.6c6.4-8.1,16.1-11.1,21.6-6.7c0.9,0.7,1.6,1.5,2.2,2.4c1.4-3.5,3.4-7,5.9-10.2
		C-66-488.5-50.7-493.3-41.8-486.3L-41.8-486.3z"/>
	<path fill-rule="evenodd" clip-rule="evenodd" fill="#F2FFFA" d="M17.7-440.2c3.8,3,5.9,7.6,6.3,12.9c7.8-6,17.1-7.5,22.9-2.9
		c7.5,5.9,6.7,19.6-1.9,30.5c-5.9,7.5-14,11.8-20.9,11.8l-34.2,0c-4,0-7.7-1-10.6-3.4c-2.8-2.2-4.6-5.2-5.6-8.8c-0.6,1-1.3,2-2,3
		c-6.7,8.5-16.9,11.7-22.7,7.1c-5.9-4.6-5.2-15.2,1.5-23.7c6.7-8.5,16.9-11.7,22.7-7.1c0.9,0.7,1.7,1.6,2.3,2.6
		c1.5-3.7,3.5-7.3,6.2-10.7C-7.7-442.5,8.4-447.5,17.7-440.2L17.7-440.2z M65-405.3c4.3,3.4,5.1,9.5,1.8,13.7
		c-3.3,4.2-9.5,4.9-13.8,1.5c-4.3-3.4-5.1-9.5-1.8-13.7C54.6-408,60.7-408.6,65-405.3L65-405.3z"/>
	<path fill-rule="evenodd" clip-rule="evenodd" fill="#D0F2EC" d="M21.4-418.1c17.1-13.2,31.9-4.5,27.7,11.8
		c-1.1,2.2-2.5,4.5-4.1,6.6c-5.9,7.5-14,11.8-20.9,11.8l-34.2,0c-4,0-7.7-1-10.6-3.4c-2.8-2.2-4.6-5.2-5.6-8.8c-0.6,1-1.3,2-2,3
		c-6.7,8.5-16.9,11.7-22.7,7.1c-0.1,0-0.1-0.1-0.2-0.1c-7.8-16.3,15.6-36.6,25.4-20.5C-16.1-435,23.1-444.2,21.4-418.1L21.4-418.1z
		 M65.4-401.8c1.8,1.4,2.9,3.4,3.3,5.4c-0.2,1.7-0.9,3.4-2,4.8c-3.3,4.2-9.5,4.9-13.8,1.5c-0.5-0.4-0.9-0.8-1.3-1.3
		c-1.3-2.9-1-6.4,1.1-9.1C55.8-404.2,61.5-404.9,65.4-401.8L65.4-401.8z"/>
	<path fill-rule="evenodd" clip-rule="evenodd" fill="#D0F2EC" d="M-39.4-455.5c10.4-5.3,16.5,0.5,13.2,9.8
		c-0.4,0.7-0.9,1.3-1.4,1.9c-5.2,6.7-13.2,9.1-17.8,5.5c-2.1-1.7-3.2-4.4-3.1-7.4c-6.1,5.7-13.3,9.1-19.7,9.1l-33.6,0
		c-2,0-3.9-0.7-5.4-1.9c-8-13,14.6-35.5,24-20.1C-67.6-492.5-30-480.9-39.4-455.5L-39.4-455.5z"/>
	<path fill-rule="evenodd" clip-rule="evenodd" fill="#70812A" d="M-791-132.7c20.8,0,37.6,16.8,37.6,37.6
		c0,20.8-16.8,37.6-37.6,37.6c-20.8,0-37.6-16.8-37.6-37.6C-828.6-115.9-811.8-132.7-791-132.7L-791-132.7z"/>
	<path fill-rule="evenodd" clip-rule="evenodd" fill="#93AA39" d="M-775.7-124.6c8.7,10.7,5.2,28-7.9,38.6
		c-13,10.6-30.7,10.5-39.4-0.3c-4.2-5.2-5.6-11.9-4.4-18.6c4.1-15.4,17.8-26.9,34.3-27.8C-786.2-132.4-779.9-129.7-775.7-124.6
		L-775.7-124.6z"/>
	<path fill-rule="evenodd" clip-rule="evenodd" fill="#93AA39" d="M-791-57.5c-20.8,0-37.6-16.8-37.6-37.6
		c0-20.8,16.8-37.6,37.6-37.6V-57.5L-791-57.5z"/>
	<path fill-rule="evenodd" clip-rule="evenodd" fill="#C0DA4E" d="M-791-81.3c-11.7,5.5-24.8,3.9-32-4.9c-4.2-5.2-5.6-11.9-4.4-18.6
		c4.1-15.4,17.8-26.9,34.3-27.8c0.7,0,1.3,0.1,2,0.1V-81.3L-791-81.3z"/>
	<path fill-rule="evenodd" clip-rule="evenodd" fill="#93AA39" d="M-803.5-92.5c3.1,0,5.6,2.5,5.6,5.6c0,3.1-2.5,5.6-5.6,5.6
		c-3.1,0-5.6-2.5-5.6-5.6C-809.1-90-806.6-92.5-803.5-92.5L-803.5-92.5z"/>
	<path fill-rule="evenodd" clip-rule="evenodd" fill="#93AA39" d="M-813.8-98.5c1.8,0,3.3,1.5,3.3,3.3c0,1.8-1.5,3.3-3.3,3.3
		c-1.8,0-3.3-1.5-3.3-3.3C-817.1-97.1-815.6-98.5-813.8-98.5L-813.8-98.5z"/>
	<polygon fill-rule="evenodd" clip-rule="evenodd" fill="#876542" points="-792.7,-70 -800.4,-74 -801,-73.1 -792.7,-67.3 
		-793.3,-33.8 -791,-33.8 -791,-76.5 -792.6,-76.9 -792.7,-70 	"/>
	<path fill-rule="evenodd" clip-rule="evenodd" fill="#3F3323" d="M-789.3-64.5l10.3-5.7l1,0.7l-11.2,7.8L-789.3-64.5L-789.3-64.5z
		 M-788.7-33.8l-0.8-42.4l-1.5-0.4v42.8H-788.7L-788.7-33.8z"/>
	<path fill-rule="evenodd" clip-rule="evenodd" fill="#93AA39" d="M-744.8-78.1c2.3,0,4.1,1.8,4.1,4.1c0,2.3-1.8,4.1-4.1,4.1
		c-2.3,0-4.1-1.8-4.1-4.1C-748.9-76.2-747-78.1-744.8-78.1L-744.8-78.1z"/>
	<path fill-rule="evenodd" clip-rule="evenodd" fill="#C0DA4E" d="M-839.1-94.1c2.3,0,4.1,1.8,4.1,4.1c0,2.3-1.8,4.1-4.1,4.1
		s-4.1-1.8-4.1-4.1C-843.2-92.3-841.4-94.1-839.1-94.1L-839.1-94.1z"/>
	<path fill-rule="evenodd" clip-rule="evenodd" fill="#70812A" d="M27-186.4c13.7,0,28,80.1,28,105c0,24.9-16,33.2-28.2,33.2
		c-12.2,0-28.2-8.3-28.2-33.2C-1.4-106.3,13.3-186.4,27-186.4L27-186.4z"/>
	<path fill-rule="evenodd" clip-rule="evenodd" fill="#93AA39" d="M38.2-170.9c4.3,24.2,7.9,40.8,5.8,65.5
		c-2.1,24.7-18.2,33-30.1,31.5C2.1-75.4,0.1-85.2-0.7-93.4l0-0.2c2.9-30.6,14.6-87.8,26.1-92.8c0.5,0,1.1,0,1.6,0
		C30.8-186.4,34.7-180.3,38.2-170.9L38.2-170.9z"/>
	<path fill-rule="evenodd" clip-rule="evenodd" fill="#93AA39" d="M26.8-48.1c-12.2,0-28.2-8.3-28.2-33.2
		c0-24.8,14.5-104.2,28.2-105V-48.1L26.8-48.1z"/>
	<path fill-rule="evenodd" clip-rule="evenodd" fill="#C0DA4E" d="M26.9-76.1c-4.3,2-8.8,2.7-12.9,2.1C2.1-75.4,0.1-85.2-0.7-93.4
		l0-0.2c2.9-30.6,14.6-87.8,26.1-92.8c0.5,0,1,0,1.5,0V-76.1L26.9-76.1z"/>
	<polygon fill-rule="evenodd" clip-rule="evenodd" fill="#876542" points="24.1,-25 25,-69.8 26.8,-70.3 26.8,-25 24.1,-25 	"/>
	<polygon fill-rule="evenodd" clip-rule="evenodd" fill="#3F3323" points="29,-59.2 38.7,-64.6 39.9,-63.6 29,-56.1 29.5,-25 
		26.8,-25 26.8,-70.3 28.8,-70.8 29,-59.2 	"/>
	<path fill-rule="evenodd" clip-rule="evenodd" fill="#93AA39" d="M17-89.4c2.3,0,4.1,1.8,4.1,4.1c0,2.3-1.8,4.1-4.1,4.1
		c-2.3,0-4.1-1.8-4.1-4.1C12.9-87.5,14.7-89.4,17-89.4L17-89.4z"/>
	<path fill-rule="evenodd" clip-rule="evenodd" fill="#B0C845" d="M77.8-100.5c2.5,0,4.6,2,4.6,4.6c0,2.5-2,4.6-4.6,4.6
		c-2.5,0-4.6-2-4.6-4.6C73.2-98.4,75.3-100.5,77.8-100.5L77.8-100.5z"/>
	<path fill-rule="evenodd" clip-rule="evenodd" fill="#CFEDDF" d="M-509.7-139.5v-19.9h-7.3v19.9H-509.7L-509.7-139.5z M-509.7-164
		v-19.9h-7.3v19.9H-509.7L-509.7-164z"/>
	<path fill-rule="evenodd" clip-rule="evenodd" fill="#CFEDDF" d="M-595.9-109v-19h-12.9v19H-595.9L-595.9-109z M-595.9-132.5v-19
		h-12.9v19H-595.9L-595.9-132.5z M-595.9-155.9v-44.4h-12.9v44.4H-595.9L-595.9-155.9z"/>
	<polygon fill-rule="evenodd" clip-rule="evenodd" fill="#60858F" points="-236.2,-83.1 -220,-83.1 -220,-49.1 -236.2,-83.1 	"/>
	<polygon fill-rule="evenodd" clip-rule="evenodd" fill="#9B9B9B" points="-244.8,-83.1 -240,-83.1 -240,-47.8 -244.8,-47.8 
		-244.8,-83.1 	"/>
	<path fill-rule="evenodd" clip-rule="evenodd" fill="#49606A" d="M-240-83.1h3.8c5.4,11.3,10.8,22.7,16.2,34v1.3h-20V-83.1
		L-240-83.1z"/>
</g>
<g id="Sun" display="none">
	<path display="inline" fill-rule="evenodd" clip-rule="evenodd" fill="#FDF7DA" d="M-572.7-257c-46.1,0-83.5-37.4-83.5-83.5
		c0-46.1,37.4-83.5,83.5-83.5v19.4c-35.4,0-64.1,28.7-64.1,64.1s28.7,64.1,64.1,64.1V-257L-572.7-257z"/>
	<path display="inline" fill-rule="evenodd" clip-rule="evenodd" fill="#FDF7DA" d="M-572.7-289.2c-28.3,0-51.3-23-51.3-51.3
		c0-28.3,23-51.3,51.3-51.3V-289.2L-572.7-289.2z"/>
	<path display="inline" fill-rule="evenodd" clip-rule="evenodd" fill="#FAEAA1" d="M-572.7-257c46.1,0,83.5-37.4,83.5-83.5
		c0-46.1-37.4-83.5-83.5-83.5v19.4c35.4,0,64.1,28.7,64.1,64.1s-28.7,64.1-64.1,64.1V-257L-572.7-257z"/>
	<path display="inline" fill-rule="evenodd" clip-rule="evenodd" fill="#FAEAA1" d="M-572.7-289.2c28.3,0,51.3-23,51.3-51.3
		c0-28.3-23-51.3-51.3-51.3V-289.2L-572.7-289.2z"/>
</g>
<g id="Layer_2" display="none" opacity="0.27">
	<path display="inline" fill-rule="evenodd" clip-rule="evenodd" fill="#FFFFFF" d="M317,406.9c3.8,0,6.8,3.1,6.8,6.8
		s-3.1,6.8-6.8,6.8s-6.8-3.1-6.8-6.8S313.3,406.9,317,406.9L317,406.9z"/>
	<path display="inline" fill-rule="evenodd" clip-rule="evenodd" fill="#FFFFFF" d="M273.3,413.7c0-3.8,3.1-6.8,6.8-6.8
		s6.8,3.1,6.8,6.8c0,3.8-3.1,6.8-6.8,6.8S273.3,417.5,273.3,413.7L273.3,413.7z"/>
	<path display="inline" fill-rule="evenodd" clip-rule="evenodd" fill="#FFFFFF" d="M236.4,413.7c0-3.8,3.1-6.8,6.8-6.8
		s6.8,3.1,6.8,6.8c0,3.8-3.1,6.8-6.8,6.8S236.4,417.5,236.4,413.7L236.4,413.7z"/>
	<path display="inline" fill-rule="evenodd" clip-rule="evenodd" fill="#FFFFFF" d="M390.8,406.9c3.8,0,6.8,3.1,6.8,6.8
		s-3.1,6.8-6.8,6.8c-3.8,0-6.8-3.1-6.8-6.8S387.1,406.9,390.8,406.9L390.8,406.9z"/>
	<path display="inline" fill-rule="evenodd" clip-rule="evenodd" fill="#FFFFFF" d="M347.1,413.7c0-3.8,3.1-6.8,6.8-6.8
		c3.8,0,6.8,3.1,6.8,6.8c0,3.8-3.1,6.8-6.8,6.8C350.2,420.5,347.1,417.5,347.1,413.7L347.1,413.7z"/>
	<path display="inline" fill-rule="evenodd" clip-rule="evenodd" fill="#FFFFFF" d="M169.4,406.9c3.8,0,6.8,3.1,6.8,6.8
		s-3.1,6.8-6.8,6.8c-3.8,0-6.8-3.1-6.8-6.8S165.7,406.9,169.4,406.9L169.4,406.9z"/>
	<path display="inline" fill-rule="evenodd" clip-rule="evenodd" fill="#FFFFFF" d="M125.7,413.7c0-3.8,3.1-6.8,6.8-6.8
		c3.8,0,6.8,3.1,6.8,6.8c0,3.8-3.1,6.8-6.8,6.8C128.8,420.5,125.7,417.5,125.7,413.7L125.7,413.7z"/>
	<path display="inline" fill-rule="evenodd" clip-rule="evenodd" fill="#FFFFFF" d="M88.8,413.7c0-3.8,3.1-6.8,6.8-6.8
		s6.8,3.1,6.8,6.8c0,3.8-3.1,6.8-6.8,6.8S88.8,417.5,88.8,413.7L88.8,413.7z"/>
	<path display="inline" fill-rule="evenodd" clip-rule="evenodd" fill="#FFFFFF" d="M199.5,413.7c0-3.8,3.1-6.8,6.8-6.8
		c3.8,0,6.8,3.1,6.8,6.8c0,3.8-3.1,6.8-6.8,6.8C202.6,420.5,199.5,417.5,199.5,413.7L199.5,413.7z"/>
	<path display="inline" fill-rule="evenodd" clip-rule="evenodd" fill="#FFFFFF" d="M-88.9,406.9c3.8,0,6.8,3.1,6.8,6.8
		s-3.1,6.8-6.8,6.8c-3.8,0-6.8-3.1-6.8-6.8S-92.7,406.9-88.9,406.9L-88.9,406.9z"/>
	<path display="inline" fill-rule="evenodd" clip-rule="evenodd" fill="#FFFFFF" d="M-132.6,413.7c0-3.8,3.1-6.8,6.8-6.8
		s6.8,3.1,6.8,6.8c0,3.8-3.1,6.8-6.8,6.8S-132.6,417.5-132.6,413.7L-132.6,413.7z"/>
	<path display="inline" fill-rule="evenodd" clip-rule="evenodd" fill="#FFFFFF" d="M-169.5,413.7c0-3.8,3.1-6.8,6.8-6.8
		c3.8,0,6.8,3.1,6.8,6.8c0,3.8-3.1,6.8-6.8,6.8C-166.5,420.5-169.5,417.5-169.5,413.7L-169.5,413.7z"/>
	<path display="inline" fill-rule="evenodd" clip-rule="evenodd" fill="#FFFFFF" d="M236.4,376.8c0-3.8,3.1-6.8,6.8-6.8
		s6.8,3.1,6.8,6.8c0,3.8-3.1,6.8-6.8,6.8S236.4,380.6,236.4,376.8L236.4,376.8z"/>
	<path display="inline" fill-rule="evenodd" clip-rule="evenodd" fill="#FFFFFF" d="M390.8,369.9c3.8,0,6.8,3.1,6.8,6.8
		c0,3.8-3.1,6.8-6.8,6.8c-3.8,0-6.8-3.1-6.8-6.8C384,373,387.1,369.9,390.8,369.9L390.8,369.9z"/>
	<path display="inline" fill-rule="evenodd" clip-rule="evenodd" fill="#FFFFFF" d="M169.4,369.9c3.8,0,6.8,3.1,6.8,6.8
		c0,3.8-3.1,6.8-6.8,6.8c-3.8,0-6.8-3.1-6.8-6.8C162.6,373,165.7,369.9,169.4,369.9L169.4,369.9z"/>
	<path display="inline" fill-rule="evenodd" clip-rule="evenodd" fill="#FFFFFF" d="M199.5,376.8c0-3.8,3.1-6.8,6.8-6.8
		c3.8,0,6.8,3.1,6.8,6.8c0,3.8-3.1,6.8-6.8,6.8C202.6,383.6,199.5,380.6,199.5,376.8L199.5,376.8z"/>
	<path display="inline" fill-rule="evenodd" clip-rule="evenodd" fill="#FFFFFF" d="M21.8,369.9c3.8,0,6.8,3.1,6.8,6.8
		c0,3.8-3.1,6.8-6.8,6.8c-3.8,0-6.8-3.1-6.8-6.8C15,373,18,369.9,21.8,369.9L21.8,369.9z"/>
	<path display="inline" fill-rule="evenodd" clip-rule="evenodd" fill="#FFFFFF" d="M-58.8,376.8c0-3.8,3.1-6.8,6.8-6.8
		s6.8,3.1,6.8,6.8c0,3.8-3.1,6.8-6.8,6.8S-58.8,380.6-58.8,376.8L-58.8,376.8z"/>
	<path display="inline" fill-rule="evenodd" clip-rule="evenodd" fill="#FFFFFF" d="M-125.8,369.9c3.8,0,6.8,3.1,6.8,6.8
		c0,3.8-3.1,6.8-6.8,6.8c-3.8,0-6.8-3.1-6.8-6.8C-132.6,373-129.6,369.9-125.8,369.9L-125.8,369.9z"/>
	<path display="inline" fill-rule="evenodd" clip-rule="evenodd" fill="#FFFFFF" d="M-206.4,376.8c0-3.8,3.1-6.8,6.8-6.8
		c3.8,0,6.8,3.1,6.8,6.8c0,3.8-3.1,6.8-6.8,6.8C-203.4,383.6-206.4,380.6-206.4,376.8L-206.4,376.8z"/>
	<path display="inline" fill-rule="evenodd" clip-rule="evenodd" fill="#FFFFFF" d="M-95.7,376.8c0-3.8,3.1-6.8,6.8-6.8
		c3.8,0,6.8,3.1,6.8,6.8c0,3.8-3.1,6.8-6.8,6.8C-92.7,383.6-95.7,380.6-95.7,376.8L-95.7,376.8z"/>
	<path display="inline" fill-rule="evenodd" clip-rule="evenodd" fill="#FFFFFF" d="M317,333c3.8,0,6.8,3.1,6.8,6.8
		s-3.1,6.8-6.8,6.8s-6.8-3.1-6.8-6.8S313.3,333,317,333L317,333z"/>
	<path display="inline" fill-rule="evenodd" clip-rule="evenodd" fill="#FFFFFF" d="M390.8,333c3.8,0,6.8,3.1,6.8,6.8
		s-3.1,6.8-6.8,6.8c-3.8,0-6.8-3.1-6.8-6.8S387.1,333,390.8,333L390.8,333z"/>
	<path display="inline" fill-rule="evenodd" clip-rule="evenodd" fill="#FFFFFF" d="M347.1,339.9c0-3.8,3.1-6.8,6.8-6.8
		c3.8,0,6.8,3.1,6.8,6.8c0,3.8-3.1,6.8-6.8,6.8C350.2,346.7,347.1,343.7,347.1,339.9L347.1,339.9z"/>
	<path display="inline" fill-rule="evenodd" clip-rule="evenodd" fill="#FFFFFF" d="M125.7,339.9c0-3.8,3.1-6.8,6.8-6.8
		c3.8,0,6.8,3.1,6.8,6.8c0,3.8-3.1,6.8-6.8,6.8C128.8,346.7,125.7,343.7,125.7,339.9L125.7,339.9z"/>
	<path display="inline" fill-rule="evenodd" clip-rule="evenodd" fill="#FFFFFF" d="M21.8,333c3.8,0,6.8,3.1,6.8,6.8
		s-3.1,6.8-6.8,6.8c-3.8,0-6.8-3.1-6.8-6.8S18,333,21.8,333L21.8,333z"/>
	<path display="inline" fill-rule="evenodd" clip-rule="evenodd" fill="#FFFFFF" d="M-21.9,339.9c0-3.8,3.1-6.8,6.8-6.8
		c3.8,0,6.8,3.1,6.8,6.8c0,3.8-3.1,6.8-6.8,6.8C-18.9,346.7-21.9,343.7-21.9,339.9L-21.9,339.9z"/>
	<path display="inline" fill-rule="evenodd" clip-rule="evenodd" fill="#FFFFFF" d="M-58.8,339.9c0-3.8,3.1-6.8,6.8-6.8
		s6.8,3.1,6.8,6.8c0,3.8-3.1,6.8-6.8,6.8S-58.8,343.7-58.8,339.9L-58.8,339.9z"/>
	<path display="inline" fill-rule="evenodd" clip-rule="evenodd" fill="#FFFFFF" d="M51.9,339.9c0-3.8,3.1-6.8,6.8-6.8
		c3.8,0,6.8,3.1,6.8,6.8c0,3.8-3.1,6.8-6.8,6.8C54.9,346.7,51.9,343.7,51.9,339.9L51.9,339.9z"/>
	<path display="inline" fill-rule="evenodd" clip-rule="evenodd" fill="#FFFFFF" d="M-169.5,339.9c0-3.8,3.1-6.8,6.8-6.8
		c3.8,0,6.8,3.1,6.8,6.8c0,3.8-3.1,6.8-6.8,6.8C-166.5,346.7-169.5,343.7-169.5,339.9L-169.5,339.9z"/>
	<path display="inline" fill-rule="evenodd" clip-rule="evenodd" fill="#FFFFFF" d="M-206.4,339.9c0-3.8,3.1-6.8,6.8-6.8
		c3.8,0,6.8,3.1,6.8,6.8c0,3.8-3.1,6.8-6.8,6.8C-203.4,346.7-206.4,343.7-206.4,339.9L-206.4,339.9z"/>
	<path display="inline" fill-rule="evenodd" clip-rule="evenodd" fill="#FFFFFF" d="M-243.3,376.8c0-3.8,3.1-6.8,6.8-6.8
		c3.8,0,6.8,3.1,6.8,6.8c0,3.8-3.1,6.8-6.8,6.8C-240.3,383.6-243.3,380.6-243.3,376.8L-243.3,376.8z"/>
	<path display="inline" fill-rule="evenodd" clip-rule="evenodd" fill="#FFFFFF" d="M-273.4,333c3.8,0,6.8,3.1,6.8,6.8
		s-3.1,6.8-6.8,6.8c-3.8,0-6.8-3.1-6.8-6.8S-277.2,333-273.4,333L-273.4,333z"/>
	<path display="inline" fill-rule="evenodd" clip-rule="evenodd" fill="#FFFFFF" d="M-317.1,339.9c0-3.8,3.1-6.8,6.8-6.8
		c3.8,0,6.8,3.1,6.8,6.8c0,3.8-3.1,6.8-6.8,6.8C-314.1,346.7-317.1,343.7-317.1,339.9L-317.1,339.9z"/>
	<path display="inline" fill-rule="evenodd" clip-rule="evenodd" fill="#FFFFFF" d="M-354,339.9c0-3.8,3.1-6.8,6.8-6.8
		c3.8,0,6.8,3.1,6.8,6.8c0,3.8-3.1,6.8-6.8,6.8C-351,346.7-354,343.7-354,339.9L-354,339.9z"/>
	<path display="inline" fill-rule="evenodd" clip-rule="evenodd" fill="#FFFFFF" d="M420.9,413.7c0-3.8,3.1-6.8,6.8-6.8
		c3.8,0,6.8,3.1,6.8,6.8c0,3.8-3.1,6.8-6.8,6.8C424,420.5,420.9,417.5,420.9,413.7L420.9,413.7z"/>
	<path display="inline" fill-rule="evenodd" clip-rule="evenodd" fill="#FFFFFF" d="M464.6,369.9c3.8,0,6.8,3.1,6.8,6.8
		c0,3.8-3.1,6.8-6.8,6.8c-3.8,0-6.8-3.1-6.8-6.8C457.8,373,460.9,369.9,464.6,369.9L464.6,369.9z"/>
	<path display="inline" fill-rule="evenodd" clip-rule="evenodd" fill="#FFFFFF" d="M420.9,376.8c0-3.8,3.1-6.8,6.8-6.8
		c3.8,0,6.8,3.1,6.8,6.8c0,3.8-3.1,6.8-6.8,6.8C424,383.6,420.9,380.6,420.9,376.8L420.9,376.8z"/>
	<path display="inline" fill-rule="evenodd" clip-rule="evenodd" fill="#FFFFFF" d="M531.6,339.9c0-3.8,3.1-6.8,6.8-6.8
		s6.8,3.1,6.8,6.8c0,3.8-3.1,6.8-6.8,6.8S531.6,343.7,531.6,339.9L531.6,339.9z"/>
	<path display="inline" fill-rule="evenodd" clip-rule="evenodd" fill="#FFFFFF" d="M420.9,339.9c0-3.8,3.1-6.8,6.8-6.8
		c3.8,0,6.8,3.1,6.8,6.8c0,3.8-3.1,6.8-6.8,6.8C424,346.7,420.9,343.7,420.9,339.9L420.9,339.9z"/>
	<path display="inline" fill-rule="evenodd" clip-rule="evenodd" fill="#FFFFFF" d="M494.7,339.9c0-3.8,3.1-6.8,6.8-6.8
		c3.8,0,6.8,3.1,6.8,6.8c0,3.8-3.1,6.8-6.8,6.8C497.8,346.7,494.7,343.7,494.7,339.9L494.7,339.9z"/>
</g>
</svg>
